HIERARCHY
ROOT Hips
{
	OFFSET 0.000000 0.000000 0.000000
	CHANNELS 6 Xposition Yposition Zposition Zrotation Yrotation Xrotation
	JOINT LHipJoint
	{
		OFFSET 0.000000 0.000000 0.000000
		CHANNELS 3 Zrotation Yrotation Xrotation
		JOINT LeftUpLeg
		{
			OFFSET 1.363060 -1.794630 0.839290
			CHANNELS 3 Zrotation Yrotation Xrotation
			JOINT LeftLeg
			{
				OFFSET 2.448110 -6.726130 0.000000
				CHANNELS 3 Zrotation Yrotation Xrotation
				JOINT LeftFoot
				{
					OFFSET 2.562200 -7.039590 0.000000
					CHANNELS 3 Zrotation Yrotation Xrotation
					JOINT LeftToeBase
					{
						OFFSET 0.157640 -0.433110 2.322550
						CHANNELS 3 Zrotation Yrotation Xrotation
						End Site
						{
							OFFSET 0.000000 0.000000 0.000000
						}
					}
				}
			}
		}
	}
	JOINT RHipJoint
	{
		OFFSET 0.000000 0.000000 0.000000
		CHANNELS 3 Zrotation Yrotation Xrotation
		JOINT RightUpLeg
		{
			OFFSET -1.305520 -1.794630 0.839290
			CHANNELS 3 Zrotation Yrotation Xrotation
			JOINT RightLeg
			{
				OFFSET -2.542530 -6.985550 0.000000
				CHANNELS 3 Zrotation Yrotation Xrotation
				JOINT RightFoot
				{
					OFFSET -2.568260 -7.056230 0.000000
					CHANNELS 3 Zrotation Yrotation Xrotation
					JOINT RightToeBase
					{
						OFFSET -0.164730 -0.452590 2.363150
						CHANNELS 3 Zrotation Yrotation Xrotation
						End Site
						{
							OFFSET 0.000000 0.000000 0.000000
						}
					}
				}
			}
		}
	}
	JOINT LowerBack
	{
		OFFSET 0.000000 0.000000 0.000000
		CHANNELS 3 Zrotation Yrotation Xrotation
		JOINT Spine
		{
			OFFSET 0.028270 2.035590 -0.193380
			CHANNELS 3 Zrotation Yrotation Xrotation
			JOINT Spine1
			{
				OFFSET 0.056720 2.048850 -0.042750
				CHANNELS 3 Zrotation Yrotation Xrotation
				JOINT Neck
				{
					OFFSET 0.000000 0.000000 0.000000
					CHANNELS 3 Zrotation Yrotation Xrotation
					JOINT Neck1
					{
						OFFSET -0.054170 1.746240 0.172020
						CHANNELS 3 Zrotation Yrotation Xrotation
						JOINT Head
						{
							OFFSET 0.104070 1.761360 -0.123970
							CHANNELS 3 Zrotation Yrotation Xrotation
							End Site
							{
								OFFSET 0.000000 0.000000 0.000000
							}
						}
					}
				}
				JOINT LeftShoulder
				{
					OFFSET 0.000000 0.000000 0.000000
					CHANNELS 3 Zrotation Yrotation Xrotation
					JOINT LeftArm
					{
						OFFSET 3.362410 1.200890 -0.311210
						CHANNELS 3 Zrotation Yrotation Xrotation
						JOINT LeftForeArm
						{
							OFFSET 4.983000 -0.000000 -0.000000
							CHANNELS 3 Zrotation Yrotation Xrotation
							JOINT LeftHand
							{
								OFFSET 3.483560 -0.000000 -0.000000
								CHANNELS 3 Zrotation Yrotation Xrotation
								JOINT LeftFingerBase
								{
									OFFSET 0.000000 0.000000 0.000000
									CHANNELS 3 Zrotation Yrotation Xrotation
									JOINT LeftHandIndex1
									{
										OFFSET 0.715260 -0.000000 -0.000000
										CHANNELS 3 Zrotation Yrotation Xrotation
										End Site
										{
											OFFSET 0.000000 0.000000 0.000000
										}
									}
								}
								JOINT LThumb
								{
									OFFSET 0.000000 0.000000 0.000000
									CHANNELS 3 Zrotation Yrotation Xrotation
									End Site
									{
										OFFSET 0.000000 0.000000 0.000000
									}
								}
							}
						}
					}
				}
				JOINT RightShoulder
				{
					OFFSET 0.000000 0.000000 0.000000
					CHANNELS 3 Zrotation Yrotation Xrotation
					JOINT RightArm
					{
						OFFSET -3.136600 1.374050 -0.404650
						CHANNELS 3 Zrotation Yrotation Xrotation
						JOINT RightForeArm
						{
							OFFSET -5.241900 -0.000000 -0.000000
							CHANNELS 3 Zrotation Yrotation Xrotation
							JOINT RightHand
							{
								OFFSET -3.444170 -0.000000 -0.000000
								CHANNELS 3 Zrotation Yrotation Xrotation
								JOINT RightFingerBase
								{
									OFFSET 0.000000 0.000000 0.000000
									CHANNELS 3 Zrotation Yrotation Xrotation
									JOINT RightHandIndex1
									{
										OFFSET -0.622530 -0.000000 -0.000000
										CHANNELS 3 Zrotation Yrotation Xrotation
										End Site
										{
											OFFSET 0.000000 0.000000 0.000000
										}
									}
								}
								JOINT RThumb
								{
									OFFSET 0.000000 0.000000 0.000000
									CHANNELS 3 Zrotation Yrotation Xrotation
									End Site
									{
										OFFSET 0.000000 0.000000 0.000000
									}
								}
							}
						}
					}
				}
			}
		}
	}
}
MOTION
Frames: 7
Frame Time: 0.008333
0.001778 0.009915 0.091931 0.008515 -0.181433 0.126299 -0.062844 -0.027212 -0.041931 0.223976 -0.228556 0.024878 -0.262236 -0.349469 -1.176416 -0.014411 0.143232 0.412421 -0.101203 0.604465 1.690116 0.024364 -0.013594 0.039167 -0.099342 -0.035635 0.331973 0.065730 0.119003 -0.352541 -0.014949 0.055499 0.059073 -0.003023 -0.024667 0.068278 0.037666 0.077478 -0.119549 -0.049083 0.097982 -0.041023 -0.061342 0.049689 0.052151 -0.009625 0.021711 0.070220 0.081592 0.010403 -0.029431 0.027959 0.013062 -0.019917 0.003907 0.002508 -0.002126 -0.059206 0.166863 -0.069265 -0.000440 0.003343 -0.000320 0.000406 0.003864 0.097753 -0.080300 -0.129547 -0.093916 0.000000 0.000000 0.000000 -0.061639 -0.159226 -0.005020 -0.000985 0.006680 0.004697 -0.040991 0.171315 0.223646 -0.106949 0.141793 -0.047898 0.000764 0.008971 0.023029 -0.204714 -0.154955 -0.027905 -0.000000 0.000000 0.000000 -0.145354 -0.138715 -0.141090
0.159199 -0.022859 -0.558336 -0.124024 -0.275835 -0.064990 -0.242223 -0.132777 -0.118938 0.125731 -0.292748 -0.375206 -0.252258 -0.173783 -0.812516 0.022736 0.068300 0.618430 -0.113081 0.358738 1.556078 0.112071 -0.055097 -0.073842 -0.288782 -0.836537 -0.745987 0.008697 -0.034263 -0.326541 -0.100104 -0.647605 -1.504744 -0.100052 -0.246389 -0.631469 -0.130325 0.080418 0.007470 -0.143655 -0.087504 -0.081845 -0.086475 0.138280 0.552142 -0.093200 0.062540 0.710224 0.220270 -0.264181 -0.184757 0.021504 -0.057872 -0.383670 -0.408775 -0.153762 -0.079718 -2.321029 -0.538618 -0.641984 -0.168447 -0.290855 -0.041338 -0.097729 -0.175059 0.881864 -0.079263 -2.308047 -0.837376 0.014484 0.000000 0.000000 0.559965 0.324414 0.556251 -0.297076 -0.101072 0.006093 -0.335968 0.099408 0.320664 -0.624979 0.165431 0.027128 0.033446 -0.019836 0.112145 0.292830 -0.886663 1.388794 0.048630 0.000000 0.000000 1.192806 0.807433 4.089911
0.388433 0.059837 -0.833288 -0.063093 -0.308844 0.005955 -0.294359 -0.215419 -0.168113 0.051179 -0.367968 -1.005586 -0.305833 -0.104516 -0.819708 0.012596 -0.285518 0.651347 -0.158264 -0.036525 1.242607 0.086386 -0.125293 -0.164587 -0.131543 -1.252168 -0.856613 0.028024 0.086029 0.382804 -0.071761 -0.500930 -2.452072 -0.004730 0.041526 0.463565 0.216563 0.190012 0.300828 -0.181926 -0.204421 -0.205018 -0.191009 0.086910 0.656214 -0.362208 -0.055252 0.493004 0.168202 -0.600008 -0.228515 0.073882 -0.085517 -0.740641 -0.704884 -0.280915 -0.146813 -3.930560 -1.232556 -2.342625 -0.501416 -0.450502 -0.041909 -0.113254 -0.278660 2.411340 -0.050328 -3.129009 -1.441077 0.032627 0.000000 0.000000 0.920394 0.649030 1.302566 -0.266825 -0.068237 0.017123 -0.732555 0.070222 0.498332 -1.215660 0.210363 0.055245 0.087942 -0.033933 0.249831 0.671352 -2.366451 0.540124 0.023477 0.000000 0.000000 -1.529421 -0.455004 1.868353
0.629456 0.193487 -1.282340 -0.068913 -0.408488 0.093472 -0.293940 -0.228248 -0.158061 0.127255 -0.327944 -1.441705 -0.331926 0.052554 -0.594901 0.025547 -0.532879 0.882303 -0.164293 -0.379732 1.085057 0.236225 -0.163978 -0.243706 0.140480 -1.558670 -0.892246 0.065667 0.218363 1.248344 0.014273 -0.619138 -3.359700 -0.019036 -0.164374 0.067650 0.158679 0.214474 0.608367 -0.126484 -0.169966 -0.157299 -0.208749 0.075750 0.807838 -0.639144 -0.146474 0.365550 0.147038 -0.797783 0.041558 0.272323 -0.030245 -0.882816 -0.797656 -0.281369 -0.182069 -4.883900 -1.871259 -4.094217 -0.746718 -0.478579 0.018910 -0.111539 -0.347614 4.025723 -0.014204 -3.787686 -2.013029 0.059094 0.000000 0.000000 1.117918 1.070346 2.209629 -0.224744 -0.028727 0.027043 -1.325048 0.022050 0.674990 -1.859757 0.106697 0.104145 0.149280 -0.052781 0.628074 3.581357 -3.051106 0.433680 0.010993 0.000000 0.000000 -3.309866 -0.993208 0.749863
0.862049 0.273080 -2.133141 -0.080051 -0.769430 0.297178 -0.218880 -0.225968 -0.084761 0.166243 -0.267561 -1.651422 -0.295117 0.297538 -0.002348 0.063065 -0.700380 1.295534 -0.161996 -0.590375 1.551201 0.388975 -0.211540 -0.207498 0.363010 -1.907006 -1.149317 -0.141176 -0.010586 2.101455 0.007576 -1.740153 -3.092445 -0.071189 -0.297114 2.518751 0.118154 0.237987 0.848194 -0.178044 -0.229054 -0.272546 -0.210479 -0.013696 0.302848 -0.669607 0.051031 0.109569 0.087882 -0.849983 0.330289 0.305135 -0.057557 -1.062023 -0.997974 -0.459483 -0.268398 -5.530984 -2.509563 -7.609097 -1.328964 -0.626814 0.043533 -0.075424 -0.316981 4.543822 -0.448619 -3.185586 -1.785435 0.026012 0.000000 0.000000 1.057990 1.016724 2.497040 0.080290 0.175146 0.021298 -2.222200 0.188750 1.053548 -2.285209 0.414722 0.063783 0.148310 -0.037410 1.232385 6.180402 -2.423550 0.624199 0.017358 0.000000 0.000000 -3.349177 -0.670223 -0.736606
1.033309 0.212788 -3.282461 -0.232685 -1.441240 0.418537 -0.250961 -0.297920 -0.080571 -0.087175 -0.401685 -2.009374 -0.226695 0.470984 0.496653 0.071843 -1.134422 1.482134 -0.210459 -0.763472 2.372780 0.413442 -0.290111 -0.021464 1.048305 -1.913778 -0.814996 -0.331430 -0.423352 2.866815 -0.070012 -2.321284 -1.054409 -0.083260 -0.200420 4.023299 -0.428143 0.287995 1.066662 -0.217972 -0.272613 -0.427194 -0.178829 -0.058621 0.295625 -0.410943 0.452818 0.082657 0.257617 -0.545041 1.060532 0.690829 0.107534 -0.926833 -0.848425 -0.393386 -0.296803 -4.590578 -2.710561 -10.693389 -1.718497 -0.593053 0.116625 -0.024357 -0.279817 5.464125 -0.574297 -1.796646 -1.312528 0.041549 0.000000 0.000000 1.737873 1.398847 3.208484 0.409930 0.265809 -0.004097 -3.430878 0.441440 1.493338 -2.755298 0.862012 -0.082329 0.129850 0.008900 1.892560 8.110110 -1.725524 -0.110753 0.005612 0.000000 0.000000 -2.560068 -0.041177 -1.506899
1.212237 0.326354 -4.005233 -0.324138 -1.904006 0.516875 -0.346545 -0.375783 -0.105991 -0.223567 -0.370085 -2.220810 -0.108696 0.583570 0.901635 0.112956 -1.565653 1.625647 -0.256265 -0.904302 3.117453 0.435774 -0.347185 0.079182 1.616393 -2.065368 -0.909017 -0.405528 -0.890402 3.711946 -0.151139 -2.556050 0.811522 -0.113222 -0.066978 3.296660 -1.098872 0.320702 1.212086 -0.151926 -0.222228 -0.388304 -0.062728 0.004533 0.580479 -0.356280 0.662197 0.177069 0.380331 -0.489229 1.340311 0.748837 0.131237 -0.955024 -0.920389 -0.450022 -0.347306 -4.203196 -3.185272 -11.126050 -1.871928 -0.493919 0.191295 -0.042272 -0.296516 5.885364 -0.829534 -2.278412 -1.245046 0.014086 0.000000 0.000000 1.830756 0.867345 3.215807 0.398787 0.204084 -0.032716 -4.569302 0.510346 1.734196 -3.412519 1.078924 -0.256090 0.102654 0.004878 1.994802 8.528267 -1.894370 -0.573675 0.005984 0.000000 0.000000 -2.556585 0.092067 -0.375391
